<svg xmlns="http://www.w3.org/2000/svg" xmlns:xlink="http://www.w3.org/1999/xlink" width="796" zoomAndPan="magnify" viewBox="0 0 597 201.749994" height="269" preserveAspectRatio="xMidYMid meet" version="1.0"><defs><clipPath id="cdb11f29e0"><path d="M 7.53125 8.371094 L 139.15625 8.371094 L 139.15625 112.34375 L 7.53125 112.34375 Z M 7.53125 8.371094 " clip-rule="nonzero"/></clipPath><clipPath id="23df56affc"><path d="M 129.015625 8.386719 L 17.664062 8.386719 C 12.082031 8.386719 7.546875 12.921875 7.546875 18.503906 L 7.546875 86.789062 C 16.289062 80.136719 27.222656 70.839844 46.949219 75.714844 C 63.949219 79.910156 67.664062 93.011719 94.550781 107.902344 C 111.011719 117.023438 126.460938 109.980469 139.136719 102.621094 L 139.136719 18.503906 C 139.136719 12.910156 134.601562 8.386719 129.007812 8.386719 " clip-rule="nonzero"/></clipPath><clipPath id="39a2735fb3"><path d="M 7.53125 104.046875 L 139.15625 104.046875 L 139.15625 200.828125 L 7.53125 200.828125 Z M 7.53125 104.046875 " clip-rule="nonzero"/></clipPath><clipPath id="649c5a093e"><path d="M 103.25 138.367188 C 97.695312 137.6875 93.382812 135.769531 89.148438 133.023438 C 79.730469 127.199219 70.691406 117.691406 51.472656 107.722656 C 36.171875 100.28125 21.242188 105.957031 7.558594 113.757812 C 7.558594 113.757812 7.546875 113.765625 7.546875 113.765625 L 7.546875 190.320312 C 7.546875 195.914062 12.082031 200.4375 17.664062 200.4375 L 129.015625 200.4375 C 134.609375 200.4375 139.144531 195.90625 139.144531 190.320312 L 139.144531 127.898438 C 127.257812 134.710938 115.855469 140.242188 103.257812 138.367188 " clip-rule="nonzero"/></clipPath><clipPath id="1ae9b60863"><path d="M 7.53125 74.183594 L 139.15625 74.183594 L 139.15625 138.886719 L 7.53125 138.886719 Z M 7.53125 74.183594 " clip-rule="nonzero"/></clipPath><clipPath id="314eefff00"><path d="M 94.550781 107.902344 C 67.664062 93.011719 63.957031 79.910156 46.949219 75.714844 C 27.222656 70.839844 16.289062 80.136719 7.546875 86.789062 L 7.566406 100.5625 L 7.566406 113.746094 C 21.25 105.945312 36.382812 99.875 51.484375 107.714844 C 70.699219 117.691406 79.730469 127.199219 89.15625 133.011719 C 93.441406 135.660156 97.816406 137.546875 103.257812 138.355469 C 115.855469 140.234375 127.269531 134.699219 139.144531 127.890625 L 139.113281 115.714844 L 139.144531 102.609375 C 126.46875 109.972656 111.03125 117.003906 94.558594 107.894531 " clip-rule="nonzero"/></clipPath><clipPath id="bfdbeda9e6"><path d="M 224 119.617188 L 263.691406 119.617188 L 263.691406 170.964844 L 224 170.964844 Z M 224 119.617188 " clip-rule="nonzero"/></clipPath><clipPath id="89c5afae8d"><path d="M 252.601562 144.675781 C 251.351562 144.574219 250.195312 144.484375 248.84375 144.484375 C 236.730469 144.484375 232.394531 148.621094 232.394531 155.929688 C 232.394531 161.605469 235.183594 164.679688 240.664062 164.679688 C 245.570312 164.679688 250.09375 161.703125 252.300781 157.179688 Z M 225.773438 126.308594 C 232.117188 122.074219 238.949219 119.867188 245.867188 119.867188 C 252.5 119.867188 257.113281 122.460938 259.140625 127.367188 C 260.199219 129.964844 260.292969 133.617188 260.199219 137.945312 L 259.820312 153.714844 C 259.632812 161.503906 260.109375 163.523438 263.667969 165.449219 L 259.820312 170.832031 C 256.554688 169.773438 254.148438 167.175781 253.28125 163.8125 C 248.664062 168.425781 244.910156 170.253906 239.4375 170.253906 C 227.613281 170.253906 224.046875 163.042969 224.046875 156.601562 C 224.046875 145.734375 233.375 139.390625 249.433594 139.390625 C 251.453125 139.390625 252.800781 139.492188 252.800781 139.492188 L 252.800781 136.117188 C 252.800781 131.882812 252.609375 130.152344 251.261719 128.613281 C 249.722656 126.886719 247.796875 126.019531 244.820312 126.019531 C 239.4375 126.019531 232.605469 128.90625 229.527344 131.691406 Z M 225.773438 126.308594 " clip-rule="nonzero"/></clipPath><clipPath id="9ecae1b613"><path d="M 174.664062 103 L 218.722656 103 L 218.722656 169.144531 L 174.664062 169.144531 Z M 174.664062 103 " clip-rule="nonzero"/></clipPath><clipPath id="076de5dad7"><path d="M 208.554688 103.035156 L 218.652344 103.035156 L 192.105469 134 L 218.453125 169.003906 L 208.355469 169.003906 L 183.167969 134.097656 Z M 174.796875 103.035156 L 182.777344 103.035156 L 182.777344 169.003906 L 174.796875 169.003906 Z M 174.796875 103.035156 " clip-rule="nonzero"/></clipPath><clipPath id="27f05575d1"><path d="M 275.460938 119.445312 L 300.933594 119.445312 L 300.933594 169.242188 L 275.460938 169.242188 Z M 275.460938 119.445312 " clip-rule="nonzero"/></clipPath><clipPath id="af8424b681"><path d="M 275.589844 121.890625 L 283.089844 119.871094 C 283.089844 119.871094 284.917969 123.617188 284.628906 127.660156 C 288.09375 122.757812 293.1875 119.679688 298.09375 119.679688 C 299.339844 119.679688 300.6875 120.160156 300.6875 120.160156 L 297.613281 128.332031 C 297.132812 128.140625 296.265625 127.953125 295.496094 127.953125 C 292.609375 127.953125 289.722656 129.199219 287.515625 131.417969 C 285.308594 133.632812 284.730469 135.074219 284.730469 139.015625 L 284.730469 169.011719 L 277.226562 169.011719 L 277.226562 132.074219 C 277.226562 125.054688 275.589844 121.890625 275.589844 121.890625 " clip-rule="nonzero"/></clipPath><clipPath id="33da5cfe33"><path d="M 307 107.136719 L 333 107.136719 L 333 170.675781 L 307 170.675781 Z M 307 107.136719 " clip-rule="nonzero"/></clipPath><clipPath id="292403a981"><path d="M 333 121.121094 L 330.691406 126.792969 L 320.683594 126.792969 L 320.683594 157.65625 C 320.683594 162.949219 322.132812 164.765625 326.835938 164.765625 C 328.953125 164.765625 330.203125 164.476562 331.550781 163.808594 L 332.609375 168.621094 C 330.203125 169.871094 327.515625 170.546875 324.148438 170.546875 C 321.652344 170.546875 319.726562 170.070312 317.898438 169.199219 C 314.53125 167.5625 313.285156 164.484375 313.285156 159.683594 L 313.285156 126.792969 L 307.03125 126.792969 L 307.03125 121.121094 L 313.285156 121.121094 C 313.285156 116.503906 314.050781 109.003906 314.050781 109.003906 L 321.941406 107.265625 C 321.941406 107.265625 320.984375 114.765625 320.984375 121.121094 Z M 333 121.121094 " clip-rule="nonzero"/></clipPath><clipPath id="baf68ebadd"><path d="M 336.707031 119.730469 L 379.640625 119.730469 L 379.640625 169.53125 L 336.707031 169.53125 Z M 336.707031 119.730469 " clip-rule="nonzero"/></clipPath><clipPath id="06163aeb33"><path d="M 336.84375 121.5 L 344.535156 119.859375 L 355.691406 152.851562 C 357.039062 156.796875 358 161.019531 358 161.019531 L 358.1875 161.019531 C 358.1875 161.019531 358.957031 157.265625 360.496094 152.941406 L 371.460938 121.109375 L 379.441406 121.109375 L 361.464844 169.488281 L 354.0625 169.488281 Z M 336.84375 121.5 " clip-rule="nonzero"/></clipPath><clipPath id="2a15499bcd"><path d="M 385.648438 119.730469 L 424.285156 119.730469 L 424.285156 170.101562 L 385.648438 170.101562 Z M 385.648438 119.730469 " clip-rule="nonzero"/></clipPath><clipPath id="4edc664652"><path d="M 394.363281 140.636719 L 416.285156 140.636719 C 416.1875 135.441406 415.515625 132.265625 414.078125 129.957031 C 412.441406 127.363281 409.074219 125.722656 405.417969 125.722656 C 398.589844 125.722656 394.742188 130.726562 394.363281 140.625 M 420.230469 159.28125 L 423.117188 164.097656 C 418.882812 167.941406 413.109375 170.058594 406.957031 170.058594 C 393.683594 170.058594 385.703125 160.441406 385.703125 144.570312 C 385.703125 136.492188 387.433594 131.296875 391.476562 126.492188 C 395.320312 121.96875 400.035156 119.859375 405.808594 119.859375 C 411.003906 119.859375 415.527344 121.6875 418.792969 125.054688 C 422.929688 129.289062 424.085938 133.804688 424.277344 145.25 L 424.277344 146.308594 L 394.363281 146.308594 L 394.363281 147.46875 C 394.363281 151.992188 394.941406 155.445312 396.570312 157.953125 C 399.265625 162.089844 403.679688 163.816406 408.496094 163.816406 C 413.109375 163.816406 416.867188 162.378906 420.230469 159.292969 " clip-rule="nonzero"/></clipPath><clipPath id="27cf5d85bf"><path d="M 437 119.605469 L 462.523438 119.605469 L 462.523438 169.148438 L 437 169.148438 Z M 437 119.605469 " clip-rule="nonzero"/></clipPath><clipPath id="5fc22360d0"><path d="M 437.152344 121.878906 L 444.652344 119.863281 C 444.652344 119.863281 446.480469 123.609375 446.191406 127.652344 C 449.65625 122.75 454.75 119.671875 459.65625 119.671875 C 460.902344 119.671875 462.25 120.152344 462.25 120.152344 L 459.175781 128.324219 C 458.695312 128.132812 457.828125 127.941406 457.058594 127.941406 C 454.171875 127.941406 451.285156 129.191406 449.078125 131.410156 C 446.871094 133.625 446.292969 135.0625 446.292969 139.007812 L 446.292969 169.003906 L 438.789062 169.003906 L 438.789062 132.078125 C 438.789062 125.058594 437.152344 121.878906 437.152344 121.878906 " clip-rule="nonzero"/></clipPath><clipPath id="b7781026c4"><path d="M 470.515625 98.511719 L 511.746094 98.511719 L 511.746094 169.148438 L 470.515625 169.148438 Z M 470.515625 98.511719 " clip-rule="nonzero"/></clipPath><clipPath id="62ede89645"><path d="M 497.835938 121.113281 L 507.257812 121.113281 L 488.410156 141.886719 L 511.589844 169.003906 L 501.582031 169.003906 L 479.558594 141.886719 Z M 470.519531 100.148438 L 478.023438 98.710938 C 478.023438 98.710938 479.269531 102.746094 479.269531 110.054688 L 479.269531 169.003906 L 471.769531 169.003906 L 471.769531 109.957031 C 471.769531 103.703125 470.519531 100.148438 470.519531 100.148438 " clip-rule="nonzero"/></clipPath><clipPath id="dd6284a182"><path d="M 517 119.605469 L 555.855469 119.605469 L 555.855469 170.105469 L 517 170.105469 Z M 517 119.605469 " clip-rule="nonzero"/></clipPath><clipPath id="ea55f6d953"><path d="M 525.722656 140.636719 L 547.644531 140.636719 C 547.546875 135.445312 546.875 132.269531 545.429688 129.960938 C 543.789062 127.363281 540.425781 125.726562 536.777344 125.726562 C 529.949219 125.726562 526.101562 130.730469 525.722656 140.628906 M 551.589844 159.285156 L 554.476562 164.097656 C 550.242188 167.945312 544.480469 170.0625 538.316406 170.0625 C 525.042969 170.0625 517.0625 160.441406 517.0625 144.574219 C 517.0625 136.492188 518.792969 131.300781 522.835938 126.496094 C 526.683594 121.96875 531.394531 119.863281 537.167969 119.863281 C 542.363281 119.863281 546.875 121.691406 550.152344 125.058594 C 554.289062 129.292969 555.445312 133.804688 555.636719 145.25 L 555.636719 146.308594 L 525.722656 146.308594 L 525.722656 147.46875 C 525.722656 151.992188 526.300781 155.449219 527.941406 157.957031 C 530.625 162.089844 535.050781 163.820312 539.867188 163.820312 C 544.480469 163.820312 548.234375 162.378906 551.601562 159.292969 " clip-rule="nonzero"/></clipPath><clipPath id="347abe3238"><path d="M 564.484375 107.140625 L 590.695312 107.140625 L 590.695312 170.746094 L 564.484375 170.746094 Z M 564.484375 107.140625 " clip-rule="nonzero"/></clipPath><clipPath id="3f6c1252b4"><path d="M 590.632812 121.113281 L 588.324219 126.785156 L 578.328125 126.785156 L 578.328125 157.65625 C 578.328125 162.949219 579.777344 164.765625 584.480469 164.765625 C 586.597656 164.765625 587.847656 164.476562 589.195312 163.808594 L 590.253906 168.621094 C 587.847656 169.871094 585.160156 170.550781 581.792969 170.550781 C 579.296875 170.550781 577.367188 170.070312 575.542969 169.203125 C 572.175781 167.5625 570.925781 164.488281 570.925781 159.683594 L 570.925781 126.785156 L 564.675781 126.785156 L 564.675781 121.113281 L 570.925781 121.113281 C 570.925781 116.496094 571.695312 108.996094 571.695312 108.996094 L 579.585938 107.257812 C 579.585938 107.257812 578.628906 114.757812 578.628906 121.113281 Z M 590.632812 121.113281 " clip-rule="nonzero"/></clipPath></defs><g clip-path="url(#cdb11f29e0)"><g clip-path="url(#23df56affc)"><path fill="#009848" d="M 2.554688 3.394531 L 144.132812 3.394531 L 144.132812 205.253906 L 2.554688 205.253906 Z M 2.554688 3.394531 " fill-opacity="1" fill-rule="nonzero"/></g></g><g clip-path="url(#39a2735fb3)"><g clip-path="url(#649c5a093e)"><path fill="#0061aa" d="M 2.554688 3.394531 L 144.132812 3.394531 L 144.132812 205.253906 L 2.554688 205.253906 Z M 2.554688 3.394531 " fill-opacity="1" fill-rule="nonzero"/></g></g><g clip-path="url(#1ae9b60863)"><g clip-path="url(#314eefff00)"><path fill="#ffffff" d="M 2.554688 3.394531 L 144.132812 3.394531 L 144.132812 205.253906 L 2.554688 205.253906 Z M 2.554688 3.394531 " fill-opacity="1" fill-rule="nonzero"/></g></g><g clip-path="url(#bfdbeda9e6)"><g clip-path="url(#89c5afae8d)"><path fill="#231f20" d="M 169.804688 98.042969 L 268.554688 98.042969 L 268.554688 175.828125 L 169.804688 175.828125 Z M 169.804688 98.042969 " fill-opacity="1" fill-rule="nonzero"/></g></g><g clip-path="url(#9ecae1b613)"><g clip-path="url(#076de5dad7)"><path fill="#231f20" d="M 169.804688 98.042969 L 268.554688 98.042969 L 268.554688 175.828125 L 169.804688 175.828125 Z M 169.804688 98.042969 " fill-opacity="1" fill-rule="nonzero"/></g></g><g clip-path="url(#27f05575d1)"><g clip-path="url(#af8424b681)"><path fill="#231f20" d="M 270.597656 102.273438 L 429.152344 102.273438 L 429.152344 175.539062 L 270.597656 175.539062 Z M 270.597656 102.273438 " fill-opacity="1" fill-rule="nonzero"/></g></g><g clip-path="url(#33da5cfe33)"><g clip-path="url(#292403a981)"><path fill="#231f20" d="M 270.597656 102.273438 L 429.152344 102.273438 L 429.152344 175.539062 L 270.597656 175.539062 Z M 270.597656 102.273438 " fill-opacity="1" fill-rule="nonzero"/></g></g><g clip-path="url(#baf68ebadd)"><g clip-path="url(#06163aeb33)"><path fill="#231f20" d="M 270.597656 102.273438 L 429.152344 102.273438 L 429.152344 175.539062 L 270.597656 175.539062 Z M 270.597656 102.273438 " fill-opacity="1" fill-rule="nonzero"/></g></g><g clip-path="url(#2a15499bcd)"><g clip-path="url(#4edc664652)"><path fill="#231f20" d="M 270.597656 102.273438 L 429.152344 102.273438 L 429.152344 175.539062 L 270.597656 175.539062 Z M 270.597656 102.273438 " fill-opacity="1" fill-rule="nonzero"/></g></g><g clip-path="url(#27cf5d85bf)"><g clip-path="url(#5fc22360d0)"><path fill="#231f20" d="M 432.160156 93.714844 L 595.488281 93.714844 L 595.488281 175.539062 L 432.160156 175.539062 Z M 432.160156 93.714844 " fill-opacity="1" fill-rule="nonzero"/></g></g><g clip-path="url(#b7781026c4)"><g clip-path="url(#62ede89645)"><path fill="#231f20" d="M 432.160156 93.714844 L 595.488281 93.714844 L 595.488281 175.539062 L 432.160156 175.539062 Z M 432.160156 93.714844 " fill-opacity="1" fill-rule="nonzero"/></g></g><g clip-path="url(#dd6284a182)"><g clip-path="url(#ea55f6d953)"><path fill="#231f20" d="M 432.160156 93.714844 L 595.488281 93.714844 L 595.488281 175.539062 L 432.160156 175.539062 Z M 432.160156 93.714844 " fill-opacity="1" fill-rule="nonzero"/></g></g><g clip-path="url(#347abe3238)"><g clip-path="url(#3f6c1252b4)"><path fill="#231f20" d="M 432.160156 93.714844 L 595.488281 93.714844 L 595.488281 175.539062 L 432.160156 175.539062 Z M 432.160156 93.714844 " fill-opacity="1" fill-rule="nonzero"/></g></g></svg>