<svg xmlns="http://www.w3.org/2000/svg" xmlns:xlink="http://www.w3.org/1999/xlink" width="900" zoomAndPan="magnify" viewBox="0 0 675 225" height="300" preserveAspectRatio="xMidYMid meet" version="1.0"><defs><g/></defs><g fill="#ffffff" fill-opacity="1"><g transform="translate(33.388746, 148.593222)"><g><path d="M 6.9375 -97.03125 L 39.640625 -97.03125 C 50.734375 -97.03125 59.347656 -94.414062 65.484375 -89.1875 C 71.628906 -83.96875 74.703125 -76.367188 74.703125 -66.390625 C 74.703125 -56.316406 71.628906 -48.597656 65.484375 -43.234375 C 59.347656 -37.878906 50.734375 -35.203125 39.640625 -35.203125 L 26.328125 -35.203125 L 26.328125 0 L 6.9375 0 Z M 38.53125 -52.671875 C 49.53125 -52.671875 55.03125 -57.195312 55.03125 -66.25 C 55.03125 -70.78125 53.617188 -74.15625 50.796875 -76.375 C 47.984375 -78.59375 43.894531 -79.703125 38.53125 -79.703125 L 26.328125 -79.703125 L 26.328125 -52.671875 Z M 38.53125 -52.671875 "/></g></g></g><g fill="#ffffff" fill-opacity="1"><g transform="translate(109.482301, 148.593222)"><g><path d="M 5.546875 -72.078125 L 23.703125 -72.078125 L 23.703125 -58.359375 C 24.992188 -63.617188 27.507812 -67.585938 31.25 -70.265625 C 35 -72.953125 39.921875 -74.109375 46.015625 -73.734375 L 46.015625 -56.140625 L 43.390625 -56.140625 C 37.835938 -56.140625 33.257812 -54.40625 29.65625 -50.9375 C 26.050781 -47.46875 24.25 -42.78125 24.25 -36.875 L 24.25 0 L 5.546875 0 Z M 5.546875 -72.078125 "/></g></g></g><g fill="#ffffff" fill-opacity="1"><g transform="translate(156.19181, 148.593222)"><g><path d="M 41.171875 1.796875 C 33.867188 1.796875 27.304688 0.113281 21.484375 -3.25 C 15.660156 -6.625 11.082031 -11.195312 7.75 -16.96875 C 4.425781 -22.75 2.765625 -29.0625 2.765625 -35.90625 C 2.765625 -42.738281 4.425781 -49.066406 7.75 -54.890625 C 11.082031 -60.710938 15.660156 -65.304688 21.484375 -68.671875 C 27.304688 -72.046875 33.867188 -73.734375 41.171875 -73.734375 C 48.460938 -73.734375 55.019531 -72.046875 60.84375 -68.671875 C 66.664062 -65.304688 71.238281 -60.710938 74.5625 -54.890625 C 77.894531 -49.066406 79.5625 -42.738281 79.5625 -35.90625 C 79.5625 -29.0625 77.894531 -22.75 74.5625 -16.96875 C 71.238281 -11.195312 66.664062 -6.625 60.84375 -3.25 C 55.019531 0.113281 48.460938 1.796875 41.171875 1.796875 Z M 21.484375 -35.90625 C 21.484375 -32.113281 22.289062 -28.644531 23.90625 -25.5 C 25.519531 -22.363281 27.828125 -19.867188 30.828125 -18.015625 C 33.835938 -16.171875 37.285156 -15.25 41.171875 -15.25 C 45.046875 -15.25 48.484375 -16.171875 51.484375 -18.015625 C 54.492188 -19.867188 56.804688 -22.363281 58.421875 -25.5 C 60.035156 -28.644531 60.84375 -32.113281 60.84375 -35.90625 C 60.84375 -39.6875 60.007812 -43.148438 58.34375 -46.296875 C 56.6875 -49.441406 54.378906 -51.957031 51.421875 -53.84375 C 48.460938 -55.738281 45.046875 -56.6875 41.171875 -56.6875 C 37.285156 -56.6875 33.863281 -55.738281 30.90625 -53.84375 C 27.945312 -51.957031 25.632812 -49.441406 23.96875 -46.296875 C 22.3125 -43.148438 21.484375 -39.6875 21.484375 -35.90625 Z M 21.484375 -35.90625 "/></g></g></g><g fill="#ffffff" fill-opacity="1"><g transform="translate(238.522527, 148.593222)"><g><path d="M 5.546875 -72.078125 L 23.984375 -72.078125 L 23.984375 -60.4375 C 26.109375 -64.6875 28.972656 -67.941406 32.578125 -70.203125 C 36.179688 -72.472656 40.984375 -73.609375 46.984375 -73.609375 C 53.453125 -73.609375 59.410156 -71.894531 64.859375 -68.46875 C 70.316406 -65.050781 74.640625 -60.453125 77.828125 -54.671875 C 81.015625 -48.898438 82.609375 -42.597656 82.609375 -35.765625 C 82.609375 -28.921875 81.015625 -22.632812 77.828125 -16.90625 C 74.640625 -11.175781 70.316406 -6.625 64.859375 -3.25 C 59.410156 0.113281 53.453125 1.796875 46.984375 1.796875 C 41.160156 1.796875 36.425781 0.710938 32.78125 -1.453125 C 29.132812 -3.628906 26.289062 -6.703125 24.25 -10.671875 L 24.25 27.71875 L 5.546875 27.71875 Z M 23.703125 -35.765625 C 23.703125 -31.972656 24.53125 -28.503906 26.1875 -25.359375 C 27.851562 -22.222656 30.234375 -19.726562 33.328125 -17.875 C 36.429688 -16.03125 39.96875 -15.109375 43.9375 -15.109375 C 47.820312 -15.109375 51.265625 -16.054688 54.265625 -17.953125 C 57.265625 -19.847656 59.617188 -22.390625 61.328125 -25.578125 C 63.046875 -28.765625 63.90625 -32.207031 63.90625 -35.90625 C 63.90625 -39.6875 63.070312 -43.148438 61.40625 -46.296875 C 59.738281 -49.441406 57.378906 -51.957031 54.328125 -53.84375 C 51.285156 -55.738281 47.820312 -56.6875 43.9375 -56.6875 C 39.96875 -56.6875 36.429688 -55.738281 33.328125 -53.84375 C 30.234375 -51.957031 27.851562 -49.414062 26.1875 -46.21875 C 24.53125 -43.03125 23.703125 -39.546875 23.703125 -35.765625 Z M 23.703125 -35.765625 "/></g></g></g><g fill="#ffffff" fill-opacity="1"><g transform="translate(323.90253, 148.593222)"><g><path d="M 38.390625 1.796875 C 31.921875 1.796875 25.960938 0.113281 20.515625 -3.25 C 15.066406 -6.625 10.742188 -11.175781 7.546875 -16.90625 C 4.359375 -22.632812 2.765625 -28.921875 2.765625 -35.765625 C 2.765625 -42.597656 4.359375 -48.898438 7.546875 -54.671875 C 10.742188 -60.453125 15.066406 -65.050781 20.515625 -68.46875 C 25.960938 -71.894531 31.921875 -73.609375 38.390625 -73.609375 C 44.304688 -73.609375 49.066406 -72.519531 52.671875 -70.34375 C 56.273438 -68.175781 59.09375 -65.054688 61.125 -60.984375 L 61.125 -101.1875 L 79.84375 -101.1875 L 79.84375 0 L 61.6875 0 L 61.6875 -11.78125 C 59.5625 -7.4375 56.671875 -4.085938 53.015625 -1.734375 C 49.367188 0.617188 44.492188 1.796875 38.390625 1.796875 Z M 21.484375 -35.90625 C 21.484375 -32.207031 22.335938 -28.765625 24.046875 -25.578125 C 25.753906 -22.390625 28.109375 -19.847656 31.109375 -17.953125 C 34.117188 -16.054688 37.5625 -15.109375 41.4375 -15.109375 C 45.414062 -15.109375 48.953125 -16.03125 52.046875 -17.875 C 55.140625 -19.726562 57.519531 -22.222656 59.1875 -25.359375 C 60.851562 -28.503906 61.6875 -31.972656 61.6875 -35.765625 C 61.6875 -39.546875 60.851562 -43.03125 59.1875 -46.21875 C 57.519531 -49.414062 55.140625 -51.957031 52.046875 -53.84375 C 48.953125 -55.738281 45.414062 -56.6875 41.4375 -56.6875 C 37.5625 -56.6875 34.097656 -55.738281 31.046875 -53.84375 C 27.992188 -51.957031 25.632812 -49.441406 23.96875 -46.296875 C 22.3125 -43.148438 21.484375 -39.6875 21.484375 -35.90625 Z M 21.484375 -35.90625 "/></g></g></g><g fill="#ffffff" fill-opacity="1"><g transform="translate(409.282516, 148.593222)"><g><path d="M 41.171875 1.796875 C 33.867188 1.796875 27.304688 0.113281 21.484375 -3.25 C 15.660156 -6.625 11.082031 -11.195312 7.75 -16.96875 C 4.425781 -22.75 2.765625 -29.0625 2.765625 -35.90625 C 2.765625 -42.738281 4.425781 -49.066406 7.75 -54.890625 C 11.082031 -60.710938 15.660156 -65.304688 21.484375 -68.671875 C 27.304688 -72.046875 33.867188 -73.734375 41.171875 -73.734375 C 48.460938 -73.734375 55.019531 -72.046875 60.84375 -68.671875 C 66.664062 -65.304688 71.238281 -60.710938 74.5625 -54.890625 C 77.894531 -49.066406 79.5625 -42.738281 79.5625 -35.90625 C 79.5625 -29.0625 77.894531 -22.75 74.5625 -16.96875 C 71.238281 -11.195312 66.664062 -6.625 60.84375 -3.25 C 55.019531 0.113281 48.460938 1.796875 41.171875 1.796875 Z M 21.484375 -35.90625 C 21.484375 -32.113281 22.289062 -28.644531 23.90625 -25.5 C 25.519531 -22.363281 27.828125 -19.867188 30.828125 -18.015625 C 33.835938 -16.171875 37.285156 -15.25 41.171875 -15.25 C 45.046875 -15.25 48.484375 -16.171875 51.484375 -18.015625 C 54.492188 -19.867188 56.804688 -22.363281 58.421875 -25.5 C 60.035156 -28.644531 60.84375 -32.113281 60.84375 -35.90625 C 60.84375 -39.6875 60.007812 -43.148438 58.34375 -46.296875 C 56.6875 -49.441406 54.378906 -51.957031 51.421875 -53.84375 C 48.460938 -55.738281 45.046875 -56.6875 41.171875 -56.6875 C 37.285156 -56.6875 33.863281 -55.738281 30.90625 -53.84375 C 27.945312 -51.957031 25.632812 -49.441406 23.96875 -46.296875 C 22.3125 -43.148438 21.484375 -39.6875 21.484375 -35.90625 Z M 21.484375 -35.90625 "/></g></g></g><g fill="#ffffff" fill-opacity="1"><g transform="translate(491.613233, 148.593222)"><g><path d="M 39.921875 1.796875 C 33.171875 1.796875 26.953125 0.113281 21.265625 -3.25 C 15.585938 -6.625 11.082031 -11.222656 7.75 -17.046875 C 4.425781 -22.867188 2.765625 -29.195312 2.765625 -36.03125 C 2.765625 -42.96875 4.425781 -49.320312 7.75 -55.09375 C 11.082031 -60.875 15.707031 -65.445312 21.625 -68.8125 C 27.539062 -72.1875 34.144531 -73.875 41.4375 -73.875 C 47.820312 -73.875 53.550781 -72.695312 58.625 -70.34375 C 63.707031 -67.988281 67.773438 -64.6875 70.828125 -60.4375 L 56.40625 -48.65625 C 54.75 -51.144531 52.578125 -53.128906 49.890625 -54.609375 C 47.210938 -56.085938 44.304688 -56.828125 41.171875 -56.828125 C 37.285156 -56.828125 33.863281 -55.878906 30.90625 -53.984375 C 27.945312 -52.085938 25.632812 -49.566406 23.96875 -46.421875 C 22.3125 -43.285156 21.484375 -39.820312 21.484375 -36.03125 C 21.484375 -32.34375 22.335938 -28.90625 24.046875 -25.71875 C 25.753906 -22.53125 28.132812 -19.988281 31.1875 -18.09375 C 34.238281 -16.195312 37.703125 -15.25 41.578125 -15.25 C 45.003906 -15.25 47.960938 -15.988281 50.453125 -17.46875 C 52.953125 -18.945312 55.21875 -21.070312 57.25 -23.84375 L 70.828125 -12.0625 C 63.617188 -2.820312 53.316406 1.796875 39.921875 1.796875 Z M 39.921875 1.796875 "/></g></g></g><g fill="#ffffff" fill-opacity="1"><g transform="translate(564.241701, 148.593222)"><g><path d="M 24.25 -34.234375 L 24.25 0 L 5.546875 0 L 5.546875 -101.1875 L 24.25 -101.1875 L 24.25 -42.96875 L 51.28125 -72.078125 L 77.90625 -72.078125 L 43.9375 -38.53125 L 78.03125 0 L 53.21875 0 Z M 24.25 -34.234375 "/></g></g></g></svg>